<svg xmlns="http://www.w3.org/2000/svg" version="1.1" xmlns:xlink="http://www.w3.org/1999/xlink" xmlns:svgjs="http://svgjs.com/svgjs" width="1440" height="560" preserveAspectRatio="none" viewBox="0 0 1440 560">
    <g mask="url(&quot;#SvgjsMask1062&quot;)" fill="none">
        <rect width="1440" height="560" x="0" y="0" fill="url(#SvgjsLinearGradient1063)"></rect>
        <path d="M0 0L606.11 0L0 141.91z" fill="rgba(255, 255, 255, .1)"></path>
        <path d="M0 141.91L606.11 0L894.61 0L0 222.56z" fill="rgba(255, 255, 255, .075)"></path>
        <path d="M0 222.56L894.61 0L1160.8400000000001 0L0 430.51z" fill="rgba(255, 255, 255, .05)"></path>
        <path d="M0 430.51L1160.8400000000001 0L1359.38 0L0 493.03z" fill="rgba(255, 255, 255, .025)"></path>
        <path d="M1440 560L1096.81 560L1440 507.72z" fill="rgba(0, 0, 0, .1)"></path>
        <path d="M1440 507.72L1096.81 560L746.66 560L1440 350.79z" fill="rgba(0, 0, 0, .075)"></path>
        <path d="M1440 350.78999999999996L746.6600000000001 560L395.1600000000001 560L1440 255.66999999999996z" fill="rgba(0, 0, 0, .05)"></path>
        <path d="M1440 255.66999999999996L395.1600000000001 560L122.5200000000001 560L1440 105.73999999999995z" fill="rgba(0, 0, 0, .025)"></path>
    </g>
    <defs>
        <mask id="SvgjsMask1062">
            <rect width="1440" height="560" fill="#ffffff"></rect>
        </mask>
        <linearGradient x1="84.72%" y1="-39.29%" x2="15.28%" y2="139.29%" gradientUnits="userSpaceOnUse" id="SvgjsLinearGradient1063">
            <stop stop-color="rgba(12, 39, 64, 1)" offset="0.35"></stop>
            <stop stop-color="rgba(2, 19, 29, 1)" offset="1"></stop>
        </linearGradient>
    </defs>
</svg>